<svg xmlns="http://www.w3.org/2000/svg" viewBox="0 0 24 24" fill="currentColor" class="nav-logo-svg">
    <path d="M21.7,2.3c-0.4-0.4-1-0.4-1.4,0l-3.5,3.5L14,3.1c-0.4-0.4-1-0.4-1.4,0L2.3,13.4c-0.2,0.2-0.3,0.5-0.3,0.7 c0,0.3,0.1,0.5,0.3,0.7L4.7,17l-2.4,4.7c-0.2,0.3-0.1,0.7,0.2,0.9c0.1,0.1,0.2,0.1,0.3,0.1c0.2,0,0.4-0.1,0.5-0.3l2.4-4.7l2.1,2.1 c0.2,0.2,0.5,0.3,0.7,0.3s0.5-0.1,0.7-0.3l10.3-10.3c0.4-0.4,0.4-1,0-1.4l-2.7-2.7l3.5-3.5C22.1,3.3,22.1,2.7,21.7,2.3z M6,15.4 l-0.7-0.7l8.6-8.6l0.7,0.7L6,15.4z"/>
</svg>
